<svg width="93" height="93" viewBox="0 0 93 93" fill="none" xmlns="http://www.w3.org/2000/svg">
<rect width="93" height="93" rx="12" fill="#00CC82"/>
<path d="M43.5113 49.049C46.1865 49.049 48.2701 48.0898 49.7621 46.1715C51.254 44.2532 52 41.7795 52 38.7506C52 36.5798 51.3826 34.6867 50.1479 33.0713C48.9132 31.4558 47.2412 30.6481 45.1318 30.6481C42.7653 30.6481 40.7846 31.582 39.1897 33.4499C37.5434 35.3682 36.7203 37.7914 36.7203 40.7194C36.7203 43.0416 37.3891 45.0104 38.7267 46.6258C40.0129 48.1908 41.6334 48.9733 43.5884 48.9733L43.5113 49.049ZM57.4791 52.5323C56.6045 52.5323 55.7042 52.4566 54.7781 52.3051C51.5884 55.435 47.5756 57 42.7396 57C38.4695 57 34.9453 55.5612 32.1672 52.6837C29.3891 49.8062 28 46.222 28 41.931C28 36.7313 29.6206 32.2636 32.8617 28.5278C36.1029 24.8426 40.2444 23 45.2862 23C46.8296 23 48.3473 23.2272 49.8392 23.6815L48.0643 31.2539L48.2186 31.3296L53.6206 25.3474C58.045 28.4774 60.2572 32.8946 60.2572 38.5991C60.2572 40.5174 59.9743 42.5367 59.4084 44.657H59.7942C64.4759 44.657 67.4084 42.3096 68.5916 37.6147L76 39.8864C74.9711 44.2784 72.8617 47.4588 69.672 49.4276C66.4309 51.3964 62.4695 52.3808 57.7878 52.3808L57.4791 52.5323Z" fill="#0E403D"/>
<path fill-rule="evenodd" clip-rule="evenodd" d="M28.7939 38.5415L35.1909 37.7697L38.3833 64.2324C38.5487 64.075 38.7178 63.9117 38.8902 63.7424C40.8373 61.8312 42.9807 59.4034 44.9468 56.8228C46.9195 54.2335 48.6532 51.5697 49.83 49.1898C51.0752 46.6716 51.4365 44.9824 51.3426 44.1419L57.7461 43.4262C58.0571 46.2081 56.9533 49.3209 55.6059 52.0458C54.1902 54.909 52.204 57.9296 50.0722 60.7277C47.9338 63.5344 45.5879 66.1969 43.4038 68.3408C41.3072 70.3988 39.0897 72.2501 37.22 73.122L33.1922 75.0001L28.7939 38.5415Z" fill="#0E403D"/>
<path d="M47 40C47 41.6569 45.6569 43 44 43C42.3431 43 41 41.6569 41 40C41 38.3431 42.3431 37 44 37C45.6569 37 47 38.3431 47 40Z" fill="#0E403D"/>
</svg>
