<svg width="256" height="256" viewBox="0 0 256 256" fill="none" xmlns="http://www.w3.org/2000/svg">
<path d="M242 128C242 190.96 190.96 242 128 242C65.0395 242 14 190.96 14 128C14 65.0395 65.0395 14 128 14C190.96 14 242 65.0395 242 128Z" fill="#003220"/>
<path d="M188.558 133.055C187.643 122.953 186.136 120.985 185.566 120.245C184.257 118.535 182.162 117.417 179.946 116.245C179.82 116.18 179.712 116.087 179.63 115.974C179.547 115.86 179.492 115.729 179.47 115.592C179.448 115.454 179.458 115.313 179.5 115.18C179.543 115.047 179.616 114.925 179.714 114.825C180.125 114.416 180.44 113.924 180.639 113.383C180.838 112.842 180.915 112.265 180.866 111.693C180.77 110.677 180.29 109.733 179.52 109.049C178.75 108.365 177.747 107.991 176.71 108H172.744C172.574 108.001 172.404 108.012 172.236 108.033C172.12 107.983 172 107.944 171.877 107.915C169.529 103.033 166.313 96.3475 159.648 93.085C149.762 88.25 131.55 88 127.992 88C124.433 88 106.222 88.25 96.3483 93.0775C89.683 96.34 86.4673 103.025 84.1185 107.908L84.0982 107.947C83.981 107.964 83.866 107.992 83.755 108.033C83.5863 108.012 83.4165 108.001 83.2466 108H79.2734C78.2359 107.991 77.2328 108.365 76.463 109.049C75.6931 109.733 75.2127 110.677 75.1171 111.693C75.072 112.264 75.1529 112.839 75.3542 113.377C75.5556 113.915 75.8727 114.404 76.2839 114.81C76.3823 114.91 76.4556 115.032 76.498 115.165C76.5405 115.298 76.5509 115.439 76.5284 115.577C76.506 115.714 76.4513 115.845 76.3688 115.959C76.2862 116.072 76.178 116.165 76.0526 116.23C73.8359 117.41 71.7311 118.527 70.4321 120.23C69.8627 120.98 68.3578 122.938 67.4402 133.04C66.9318 138.725 66.8555 144.61 67.2546 148.4C68.0909 156.275 69.6594 161.035 69.7255 161.232C69.9661 161.951 70.4092 162.588 71.0031 163.069C71.5971 163.55 72.3176 163.856 73.081 163.95V164C73.081 165.061 73.5095 166.078 74.2722 166.828C75.035 167.579 76.0695 168 77.1482 168H91.3836C92.4624 168 93.4969 167.579 94.2596 166.828C95.0224 166.078 95.4509 165.061 95.4509 164C97.6396 164 99.1623 163.615 100.776 163.205C103.107 162.587 105.489 162.177 107.894 161.978C115.65 161.25 123.363 161 127.992 161C132.527 161 140.58 161.25 148.348 161.978C150.763 162.177 153.154 162.59 155.494 163.21C157.039 163.6 158.506 163.96 160.537 163.997C160.537 165.058 160.966 166.076 161.729 166.826C162.491 167.576 163.526 167.997 164.605 167.997H178.84C179.919 167.997 180.953 167.576 181.716 166.826C182.479 166.076 182.907 165.058 182.907 163.997V163.967C183.672 163.875 184.395 163.57 184.991 163.089C185.587 162.608 186.032 161.97 186.273 161.25C186.339 161.052 187.907 156.293 188.744 148.418C189.143 144.625 189.072 138.75 188.558 133.055ZM91.4701 111.327C93.5037 107.077 95.8297 102.268 99.9707 100.24C105.955 97.31 118.357 95.99 127.992 95.99C137.626 95.99 150.029 97.3 156.012 100.24C160.153 102.268 162.469 107.08 164.513 111.327L164.767 111.87C164.916 112.179 164.982 112.52 164.958 112.861C164.935 113.202 164.823 113.531 164.633 113.817C164.443 114.104 164.182 114.337 163.875 114.496C163.567 114.655 163.223 114.734 162.876 114.725C154.429 114.5 136.635 113.78 127.992 113.78C119.349 113.78 101.554 114.518 93.0944 114.743C92.7471 114.751 92.4033 114.673 92.0957 114.514C91.7881 114.355 91.527 114.121 91.3373 113.835C91.1477 113.549 91.0358 113.219 91.0123 112.878C90.9888 112.537 91.0545 112.196 91.2032 111.888C91.2921 111.703 91.3862 111.515 91.4701 111.327ZM94.5027 131.235C90.1299 131.753 85.7291 132.008 81.3248 132C78.6302 132 75.8518 131.25 75.3357 128.89C74.9824 127.302 75.0205 126.41 75.2112 125.513C75.3713 124.75 75.6255 124.195 76.8966 124C80.2012 123.5 82.0493 124.127 87.4587 125.695C91.0456 126.732 93.6334 128.115 95.1077 129.21C95.8475 129.75 95.4535 131.16 94.5027 131.235ZM150.778 151.735C147.433 152.11 140.742 151.973 128.068 151.973C115.393 151.973 108.705 152.11 105.36 151.735C101.908 151.358 97.5074 148.147 100.512 145.287C102.513 143.402 107.18 141.992 113.395 141.2C119.61 140.407 122.241 140 128.042 140C133.843 140 136.207 140.25 142.69 141.202C149.172 142.155 154.07 143.583 155.573 145.29C158.313 148.35 154.228 151.338 150.778 151.75V151.735ZM180.647 128.887C180.139 131.257 177.343 131.997 174.658 131.997C170.17 131.999 165.685 131.743 161.226 131.232C160.448 131.16 160.087 129.817 160.875 129.207C162.327 128.085 164.943 126.73 168.524 125.693C173.934 124.125 177.053 123.498 179.732 124.02C180.386 124.148 180.731 124.838 180.772 125.27C180.951 126.474 180.909 127.7 180.647 128.89V128.887Z" fill="white"/>
</svg>
