<svg width="256" height="256" viewBox="0 0 256 256" fill="none" xmlns="http://www.w3.org/2000/svg">
<path fill-rule="evenodd" clip-rule="evenodd" d="M130 17L130 25L128 25L128 17L130 17ZM130 33L130 47L128 47L128 33L130 33ZM130 55L130 69L128 69L128 55L130 55ZM130 77L130 91L128 91L128 77L130 77ZM130 99L130 113L128 113L128 99L130 99ZM130 121L130 135L128 135L128 121L130 121ZM130 143L130 157L128 157L128 143L130 143ZM130 165L130 179L128 179L128 165L130 165ZM130 187L130 201L128 201L128 187L130 187ZM130 209L130 223L128 223L128 209L130 209ZM130 231L130 239L128 239L128 231L130 231Z" fill="#CBCBCB"/>
</svg>
