<svg width="256" height="256" viewBox="0 0 256 256" fill="none" xmlns="http://www.w3.org/2000/svg">
<path fill-rule="evenodd" clip-rule="evenodd" d="M96 106.464C96 88.5347 110.535 74 128.464 74H128.536C146.465 74 161 88.5347 161 106.464V106.536C161 124.465 146.465 139 128.536 139H128.464C110.535 139 96 124.465 96 106.536V106.464Z" fill="#B8FFE6"/>
<path fill-rule="evenodd" clip-rule="evenodd" d="M78.3668 31.9462C93.1681 22.0564 110.57 16.7778 128.371 16.7778C146.172 16.7778 163.574 22.0564 178.375 31.9462C193.176 41.836 204.713 55.8927 211.525 72.3389C218.338 88.7851 220.12 106.882 216.648 124.341C213.175 141.801 204.603 157.838 192.016 170.426L188.649 167.059L192.016 170.426L131.906 230.536C130.969 231.473 129.697 232 128.371 232C127.045 232 125.773 231.473 124.835 230.536L64.7259 170.426L68.2397 166.912L64.7258 170.426C52.1387 157.838 43.5668 141.801 40.0943 124.341C36.6217 106.882 38.4044 88.7851 45.2168 72.3389C52.0293 55.8927 63.5655 41.836 78.3668 31.9462ZM128.371 26.7778C112.547 26.7778 97.0793 31.4699 83.9225 40.2609C70.7657 49.0519 60.5111 61.5469 54.4556 76.1659C48.4 90.7848 46.8154 106.871 49.9022 122.391C52.9889 137.91 60.6084 152.166 71.797 163.355L128.371 219.929L184.945 163.355C196.134 152.166 203.753 137.91 206.84 122.391C209.927 106.871 208.342 90.7848 202.286 76.1659C196.231 61.5469 185.976 49.0519 172.819 40.2609C159.663 31.4699 144.194 26.7778 128.371 26.7778Z" fill="#00CC82"/>
</svg>
