<svg width="256" height="256" viewBox="0 0 256 256" fill="none" xmlns="http://www.w3.org/2000/svg">
<path fill-rule="evenodd" clip-rule="evenodd" d="M128 212C174.392 212 212 174.392 212 128C212 81.6081 174.392 44 128 44C81.6081 44 44 81.6081 44 128C44 174.392 81.6081 212 128 212ZM128 222C179.915 222 222 179.915 222 128C222 76.0852 179.915 34 128 34C76.0852 34 34 76.0852 34 128C34 179.915 76.0852 222 128 222Z" fill="#00CC82"/>
<path d="M161 128C161 146.225 146.225 161 128 161C109.775 161 95 146.225 95 128C95 109.775 109.775 95 128 95C146.225 95 161 109.775 161 128Z" fill="#B8FFE6"/>
</svg>
