<svg width="256" height="256" viewBox="0 0 256 256" fill="none" xmlns="http://www.w3.org/2000/svg">
<path d="M242 128C242 190.96 190.96 242 128 242C65.0395 242 14 190.96 14 128C14 65.0395 65.0395 14 128 14C190.96 14 242 65.0395 242 128Z" fill="#003220"/>
<path d="M128 187C116.331 187 104.924 183.54 95.2214 177.057C85.5189 170.574 77.9567 161.359 73.4911 150.578C69.0256 139.797 67.8572 127.935 70.1337 116.49C72.4102 105.045 78.0294 94.532 86.2807 86.2807C94.532 78.0294 105.045 72.4102 116.49 70.1337C127.935 67.8572 139.797 69.0256 150.578 73.4911C161.359 77.9567 170.574 85.5189 177.057 95.2214C183.54 104.924 187 116.331 187 128C187 143.648 180.784 158.655 169.719 169.719C158.655 180.784 143.648 187 128 187ZM128 77.4286C117.998 77.4286 108.22 80.3946 99.904 85.9514C91.5876 91.5083 85.1057 99.4065 81.2781 108.647C77.4505 117.888 76.449 128.056 78.4003 137.866C80.3516 147.676 85.1681 156.687 92.2406 163.759C99.3132 170.832 108.324 175.648 118.134 177.6C127.944 179.551 138.112 178.55 147.353 174.722C156.594 170.894 164.492 164.412 170.049 156.096C175.605 147.78 178.571 138.002 178.571 128C178.571 114.588 173.243 101.725 163.759 92.2406C154.275 82.7566 141.412 77.4286 128 77.4286Z" fill="white"/>
<path d="M147.957 154L124 130.149V90H132.571V126.608L154 147.984L147.957 154Z" fill="white"/>
</svg>
